:FULLY-SPECIFIED
:FORCE-ALL-JOINTS-BE-3DOF
:DEGREES
1121
root 0.493789 15.0328 -26.7791 -2.57566 20.0906 2.26915
lfemur -13.567 2.69875 -19.0635
ltibia 61.8324 -0 0
lfoot -30.6677 22.7322 -0.0424491
ltoes -21.0031 0 0
rfemur -51.1505 -6.3852 4.54974
rtibia 38.7887 -0 0
rfoot 26.659 7.11654 -0.0019453
rtoes 11.0529 -0 0
lowerback 13.5169 0.072043 -7.9784
upperback -0.748592 -0.978746 2.61193
thorax -8.24525 -0.0550258 7.57853
lowerneck -1.44622 -6.68761 -9.9566
upperneck 8.11335 -9.05994 6.48549
head 3.44607 -4.57001 3.20179
lclavicle 5.12011e-14 -1.83089e-15 -3.82392e-31
lhumerus -16.4034 -60.6167 106.601
lradius 110.96 -0 0
lwrist 30.6046 0 0
lhand -28.718 39.4233 0.041767
lfingers 7.12502 -0 0
lthumb -2.26288 72.4475 -0.245416
rclavicle 5.12011e-14 -1.83089e-15 -3.82392e-31
rhumerus 12.6822 28.2741 -69.1453
rradius 103.527 -0 0
rwrist -12.6107 0 0
rhand 6.21916 -29.6157 -0.00683241
rfingers 7.12502 -0 0
rthumb 31.5327 -56.923 -0.00837735
1122
root 0.496899 15.0328 -26.7284 -2.57521 20.2057 2.25918
lfemur -13.5941 2.68239 -19.1308
ltibia 61.9031 -0 0
lfoot -30.7273 22.7326 -0.0371552
ltoes -21.0394 0 0
rfemur -51.1753 -6.34466 4.5728
rtibia 38.7697 -0 0
rfoot 26.6707 7.14141 -0.00664001
rtoes 11.0728 -0 0
lowerback 13.5175 0.0668602 -7.98351
upperback -0.751632 -0.985896 2.61678
thorax -8.249 -0.0579662 7.58817
lowerneck -1.44042 -6.71668 -9.98215
upperneck 8.10513 -9.10011 6.50788
head 3.44348 -4.58964 3.21149
lclavicle 5.14089e-14 -1.79973e-15 -3.37249e-31
lhumerus -16.3726 -60.6893 106.696
lradius 111.045 -0 0
lwrist 30.7796 0 0
lhand -28.7217 39.4705 0.0377488
lfingers 7.12502 -0 0
lthumb -2.24885 72.2102 -0.222936
rclavicle 5.14089e-14 -1.79973e-15 -3.37249e-31
rhumerus 12.8314 28.2904 -69.1044
rradius 103.512 -0 0
rwrist -12.4749 0 0
rhand 6.21949 -29.631 -0.00560771
rfingers 7.12502 -0 0
rthumb 31.533 -56.9377 -0.00711023
1123
root 0.499889 15.0328 -26.6778 -2.57433 20.3177 2.24896
lfemur -13.6233 2.66662 -19.1969
ltibia 61.9735 -0 0
lfoot -30.7849 22.7322 -0.0320872
ltoes -21.0758 0 0
rfemur -51.1981 -6.30432 4.59676
rtibia 38.7523 -0 0
rfoot 26.6789 7.16429 -0.0102729
rtoes 11.091 -0 0
lowerback 13.5181 0.061894 -7.98802
upperback -0.754755 -0.992664 2.62162
thorax -8.25289 -0.0607416 7.59737
lowerneck -1.43492 -6.74507 -10.0072
upperneck 8.09679 -9.13932 6.52984
head 3.44087 -4.60879 3.22103
lclavicle 5.16088e-14 -1.77011e-15 -2.93565e-31
lhumerus -16.337 -60.7592 106.786
lradius 111.128 -0 0
lwrist 30.9528 0 0
lhand -28.7259 39.5182 0.033694
lfingers 7.12502 -0 0
lthumb -2.23515 71.9686 -0.200003
rclavicle 5.16088e-14 -1.77011e-15 -2.93565e-31
rhumerus 12.9771 28.307 -69.0644
rradius 103.498 -0 0
rwrist -12.3431 0 0
rhand 6.21872 -29.6456 -0.00450017
rfingers 7.12502 -0 0
rthumb 31.5323 -56.9518 -0.00593586
1124
root 0.50276 15.0328 -26.6272 -2.57304 20.4264 2.23848
lfemur -13.6546 2.65143 -19.2617
ltibia 62.0437 -0 0
lfoot -30.8405 22.731 -0.0272479
ltoes -21.1122 0 0
rfemur -51.2188 -6.26418 4.62161
rtibia 38.7365 -0 0
rfoot 26.6836 7.18518 -0.0128341
rtoes 11.1073 -0 0
lowerback 13.5187 0.0571462 -7.99195
upperback -0.757962 -0.999048 2.62644
thorax -8.25692 -0.0633509 7.60612
lowerneck -1.42969 -6.77279 -10.0316
upperneck 8.08833 -9.17758 6.55138
head 3.43825 -4.62747 3.23038
lclavicle 5.18006e-14 -1.74205e-15 -2.5137e-31
lhumerus -16.2965 -60.8264 106.872
lradius 111.208 -0 0
lwrist 31.1241 0 0
lhand -28.7306 39.5661 0.029603
lfingers 7.12502 -0 0
lthumb -2.22178 71.7227 -0.176614
rclavicle 5.18006e-14 -1.74205e-15 -2.5137e-31
rhumerus 13.1193 28.3241 -69.0254
rradius 103.485 -0 0
rwrist -12.2154 0 0
rhand 6.21685 -29.6595 -0.00351105
rfingers 7.12502 -0 0
rthumb 31.5304 -56.9654 -0.00485529
1125
root 0.50551 15.0328 -26.5767 -2.57133 20.532 2.22775
lfemur -13.6881 2.63684 -19.3254
ltibia 62.1136 -0 0
lfoot -30.8941 22.729 -0.02264
ltoes -21.1485 0 0
rfemur -51.2375 -6.22424 4.64737
rtibia 38.7223 -0 0
rfoot 26.6849 7.20405 -0.0143141
rtoes 11.1218 -0 0
lowerback 13.5195 0.0526181 -7.99527
upperback -0.761254 -1.00504 2.63125
thorax -8.2611 -0.065793 7.61443
lowerneck -1.42476 -6.79983 -10.0555
upperneck 8.07975 -9.21488 6.5725
head 3.43561 -4.64567 3.23957
lclavicle 5.19844e-14 -1.71555e-15 -2.10692e-31
lhumerus -16.2513 -60.891 106.953
lradius 111.286 -0 0
lwrist 31.2936 0 0
lhand -28.7359 39.6145 0.0254764
lfingers 7.12502 -0 0
lthumb -2.20877 71.4726 -0.152768
rclavicle 5.19844e-14 -1.71555e-15 -2.10692e-31
rhumerus 13.2579 28.3415 -68.9875
rradius 103.473 -0 0
rwrist -12.0918 0 0
rhand 6.21386 -29.6726 -0.00264155
rfingers 7.12502 -0 0
rthumb 31.5276 -56.9783 -0.00386955
1126
root 0.508139 15.0328 -26.5263 -2.56919 20.6344 2.21677
lfemur -13.7237 2.62283 -19.3879
ltibia 62.1833 -0 0
lfoot -30.9455 22.726 -0.0182664
ltoes -21.1849 0 0
rfemur -51.2541 -6.18451 4.67405
rtibia 38.7097 -0 0
rfoot 26.6828 7.22089 -0.0147036
rtoes 11.1345 -0 0
lowerback 13.5202 0.0483115 -7.99799
upperback -0.764631 -1.01065 2.63604
thorax -8.26541 -0.0680668 7.6223
lowerneck -1.42013 -6.82618 -10.0788
upperneck 8.07105 -9.2512 6.59317
head 3.43296 -4.6634 3.24857
lclavicle 5.21601e-14 -1.69063e-15 -1.71558e-31
lhumerus -16.201 -60.953 107.029
lradius 111.361 -0 0
lwrist 31.4612 0 0
lhand -28.7417 39.6631 0.0213147
lfingers 7.12502 -0 0
lthumb -2.19611 71.2182 -0.128463
rclavicle 5.21601e-14 -1.69063e-15 -1.71558e-31
rhumerus 13.393 28.3594 -68.9505
rradius 103.462 -0 0
rwrist -11.9723 0 0
rhand 6.20975 -29.685 -0.00189286
rfingers 7.12502 -0 0
rthumb 31.5236 -56.9907 -0.00297963
1127
root 0.510645 15.0328 -26.4759 -2.56663 20.7336 2.20553
lfemur -13.7615 2.60941 -19.4492
ltibia 62.2526 -0 0
lfoot -30.9949 22.7223 -0.0141296
ltoes -21.2212 0 0
rfemur -51.2686 -6.14499 4.70164
rtibia 38.6987 -0 0
rfoot 26.6771 7.23569 -0.0139939
rtoes 11.1454 -0 0
lowerback 13.5211 0.0442277 -8.00011
upperback -0.768094 -1.01587 2.64082
thorax -8.26988 -0.0701709 7.62971
lowerneck -1.41579 -6.85184 -10.1016
upperneck 8.06223 -9.28654 6.61341
head 3.43029 -4.68064 3.2574
lclavicle 5.23275e-14 -1.66731e-15 -1.33996e-31
lhumerus -16.1457 -61.0122 107.099
lradius 111.434 -0 0
lwrist 31.6269 0 0
lhand -28.7481 39.7121 0.0171185
lfingers 7.12502 -0 0
lthumb -2.18382 70.9594 -0.103697
rclavicle 5.23275e-14 -1.66731e-15 -1.33996e-31
rhumerus 13.5245 28.3776 -68.9145
rradius 103.452 -0 0
rwrist -11.857 0 0
rhand 6.2045 -29.6967 -0.00126613
rfingers 7.12502 -0 0
rthumb 31.5185 -57.0025 -0.0021865
1128
root 0.513028 15.0328 -26.4255 -2.56363 20.8294 2.19403
lfemur -13.8016 2.59659 -19.5093
ltibia 62.3217 -0 0
lfoot -31.0422 22.7177 -0.0102322
ltoes -21.2576 0 0
rfemur -51.281 -6.10568 4.73017
rtibia 38.6893 -0 0
rfoot 26.6678 7.24844 -0.0121765
rtoes 11.1544 -0 0
lowerback 13.522 0.0403684 -8.00161
upperback -0.771642 -1.02068 2.64559
thorax -8.27448 -0.0721044 7.63667
lowerneck -1.41175 -6.8768 -10.1238
upperneck 8.05329 -9.3209 6.63322
head 3.42761 -4.69739 3.26605
lclavicle 5.24867e-14 -1.6456e-15 -9.80337e-32
lhumerus -16.0854 -61.0688 107.165
lradius 111.504 -0 0
lwrist 31.7907 0 0
lhand -28.755 39.7614 0.0128884
lfingers 7.12502 -0 0
lthumb -2.1719 70.6963 -0.078469
rclavicle 5.24867e-14 -1.6456e-15 -9.80337e-32
rhumerus 13.6524 28.3963 -68.8796
rradius 103.443 -0 0
rwrist -11.7458 0 0
rhand 6.19812 -29.7077 -0.000762439
rfingers 7.12502 -0 0
rthumb 31.5124 -57.0136 -0.00149109
1129
root 0.515287 15.0328 -26.3752 -2.56019 20.922 2.18228
lfemur -13.8439 2.58436 -19.5681
ltibia 62.3905 -0 0
lfoot -31.0875 22.7122 -0.00657653
ltoes -21.2939 0 0
rfemur -51.2912 -6.06658 4.75964
rtibia 38.6816 -0 0
rfoot 26.655 7.25912 -0.00924343
rtoes 11.1616 -0 0
lowerback 13.5229 0.0367352 -8.00251
upperback -0.775277 -1.0251 2.65034
thorax -8.27923 -0.0738661 7.64317
lowerneck -1.40801 -6.90107 -10.1454
upperneck 8.04423 -9.35427 6.65257
head 3.42491 -4.71366 3.27451
lclavicle 5.26375e-14 -1.62552e-15 -6.36964e-32
lhumerus -16.0199 -61.1226 107.226
lradius 111.571 -0 0
lwrist 31.9526 0 0
lhand -28.7625 39.8111 0.00862481
lfingers 7.12502 -0 0
lthumb -2.16036 70.4288 -0.0527777
rclavicle 5.26375e-14 -1.62552e-15 -6.36964e-32
rhumerus 13.7766 28.4155 -68.8457
rradius 103.435 -0 0
rwrist -11.6389 0 0
rhand 6.19059 -29.7179 -0.000382854
rfingers 7.12502 -0 0
rthumb 31.5051 -57.0242 -0.000894297
